<svg xmlns="http://www.w3.org/2000/svg" xmlns:svg="http://www.w3.org/2000/svg" id="svg8" width="129.799" height="57.83" version="1.1" viewBox="0 0 34.343 15.301"><metadata id="metadata5"/><g id="layer1" transform="translate(-53.018986,-23.9019)"><g id="g4602" transform="rotate(-0.28559572,70.190289,31.552338)"><path id="path3732" fill="teal" stroke-width=".541" d="m 233.33789,90.337891 -32.95117,28.619139 31.94726,28.91406 64.9004,0.29688 32.95117,-28.61914 -31.94727,-28.914064 z" transform="scale(0.26458333)"/><path id="path3774" fill="none" stroke="#fff" stroke-dasharray="none" stroke-miterlimit="4" stroke-width=".315" d="m 62.120274,24.413292 -8.32335,7.065988 8.069765,7.138804 16.393615,0.0733 8.32335,-7.065988 -8.069768,-7.138806 z"/></g><g id="g4609" transform="translate(-0.43472687)"><path id="path3730" fill="#fff" stroke-width=".143" d="m 60.964519,27.804182 c 0.886395,-0.348655 1.859691,-0.390207 2.74248,-0.111952 0.651274,0.210103 1.042699,0.454066 1.576252,0.972044 l -1.506657,0.592635 c -0.744252,-0.446473 -1.423964,-0.497745 -2.270962,-0.164583 -0.738662,0.290549 -1.26082,0.814436 -1.498695,1.510755 -0.203801,0.580557 -0.182185,1.300104 0.05025,1.891033 0.534609,1.359137 2.079298,2.048044 3.418738,1.521183 0.699266,-0.275052 1.11846,-0.713017 1.465328,-1.565931 l 1.585527,-0.623658 c -0.04824,1.554281 -1.023053,2.892949 -2.510224,3.47792 -2.127345,0.836779 -4.497206,-0.187252 -5.322363,-2.28505 -0.809661,-2.058401 0.211919,-4.404734 2.270322,-5.214396 z"/><path id="path3728" fill="#fff" stroke-width=".541" d="m 253.49609,104.47266 h 5.48047 v 24.32031 h 9.03906 v 5.24023 h -14.51953 z" transform="scale(0.26458333)"/><path id="path3726" fill="#fff" stroke-width=".541" d="m 271.07422,104.47266 h 5.48047 v 29.56054 h -5.48047 z" transform="scale(0.26458333)"/><path id="path3724" fill="#fff" stroke-width=".541" d="m 294.68555,104.47266 v 29.56054 h -5.32032 v -24.56054 h -3.71875 z" transform="scale(0.26458333)"/><path id="path3705" fill="#fff" stroke-width=".541" d="m 305.76758,104.47266 v 29.56054 h -5.32031 v -24.56054 h -3.71875 z" transform="scale(0.26458333)"/></g></g></svg>